<svg id="Capa_1" data-name="Capa 1" xmlns="http://www.w3.org/2000/svg" viewBox="0 0 23.18 23.18"><defs><style>.cls-1{fill:#ff9d00;}</style></defs><g id="Group_6" data-name="Group 6"><g id="Group_1" data-name="Group 1"><path id="Path_1" data-name="Path 1" class="cls-1" d="M590.19,423.87l-5.05,2.95h7A30.52,30.52,0,0,1,590.19,423.87Z" transform="translate(-581.81 -403.64)"/></g><g id="Group_2" data-name="Group 2"><path id="Path_2" data-name="Path 2" class="cls-1" d="M581.81,406.36v17.75a2.71,2.71,0,0,0,2.71,2.71h.62l4.36-4.21c-2.21-4.26-3.94-10.42-4.49-19h-.49a2.71,2.71,0,0,0-2.71,2.71Z" transform="translate(-581.81 -403.64)"/></g><g id="Group_3" data-name="Group 3"><path id="Path_3" data-name="Path 3" class="cls-1" d="M599.56,426.82h2.72a2.71,2.71,0,0,0,2.71-2.71v-8.88l-11.33,6.62A27.56,27.56,0,0,0,599.56,426.82Z" transform="translate(-581.81 -403.64)"/></g><g id="Group_4" data-name="Group 4"><path id="Path_4" data-name="Path 4" class="cls-1" d="M597.13,415.23l-12-11.57a39.72,39.72,0,0,0,7,16.38Z" transform="translate(-581.81 -403.64)"/></g><g id="Group_5" data-name="Group 5"><path id="Path_5" data-name="Path 5" class="cls-1" d="M605,406.36a2.72,2.72,0,0,0-2.71-2.72H585.2L605,415.23Z" transform="translate(-581.81 -403.64)"/></g></g></svg>