<svg id="Capa_1" data-name="Capa 1" xmlns="http://www.w3.org/2000/svg" viewBox="0 0 159.25 23.18"><g id="Group_6" data-name="Group 6"><g id="Group_1" data-name="Group 1"><path id="Path_1" data-name="Path 1" d="M710.19,826.87l-5.05,3h7A30.52,30.52,0,0,1,710.19,826.87Z" transform="translate(-701.81 -806.64)"/></g><g id="Group_2" data-name="Group 2"><path id="Path_2" data-name="Path 2" d="M701.81,809.36v17.75a2.71,2.71,0,0,0,2.71,2.71h.62l4.36-4.21c-2.21-4.26-3.94-10.42-4.49-19h-.49a2.71,2.71,0,0,0-2.71,2.71Z" transform="translate(-701.81 -806.64)"/></g><g id="Group_3" data-name="Group 3"><path id="Path_3" data-name="Path 3" d="M719.56,829.82h2.72a2.71,2.71,0,0,0,2.71-2.71v-8.88l-11.33,6.62A27.56,27.56,0,0,0,719.56,829.82Z" transform="translate(-701.81 -806.64)"/></g><g id="Group_4" data-name="Group 4"><path id="Path_4" data-name="Path 4" d="M717.13,818.23l-12-11.57a39.72,39.72,0,0,0,7,16.38Z" transform="translate(-701.81 -806.64)"/></g><g id="Group_5" data-name="Group 5"><path id="Path_5" data-name="Path 5" d="M725,809.36a2.72,2.72,0,0,0-2.71-2.72H705.2L725,818.23Z" transform="translate(-701.81 -806.64)"/></g></g><path id="Path_6" data-name="Path 6" d="M746.57,810.39l-6.79,15.68H736.2l-6.77-15.68h3.92l4.77,11.2,4.84-11.2Z" transform="translate(-701.81 -806.64)"/><path id="Path_7" data-name="Path 7" d="M747.87,810.39h3.63v15.68h-3.63Z" transform="translate(-701.81 -806.64)"/><path id="Path_8" data-name="Path 8" d="M769.49,826.07l0-9.41-4.62,7.76h-1.63l-4.59-7.55v9.2h-3.41V810.39h3l5.87,9.75,5.78-9.75h3l0,15.68Z" transform="translate(-701.81 -806.64)"/><path id="Path_9" data-name="Path 9" d="M786.94,822.71h-7.28l-1.39,3.36h-3.72l7-15.68h3.59l7,15.69h-3.81ZM785.8,820l-2.49-6-2.48,6Z" transform="translate(-701.81 -806.64)"/><path id="Path_10" data-name="Path 10" d="M796.72,825.3a7.68,7.68,0,0,1-3-2.89,8.43,8.43,0,0,1,0-8.36,7.82,7.82,0,0,1,3-2.89,9.75,9.75,0,0,1,8-.32,7.29,7.29,0,0,1,2.76,2.06l-2.33,2.15a5,5,0,0,0-3.94-1.84,5.35,5.35,0,0,0-2.6.64,4.48,4.48,0,0,0-1.78,1.78,5.62,5.62,0,0,0,0,5.2,4.48,4.48,0,0,0,1.78,1.78,5.14,5.14,0,0,0,2.6.64,5,5,0,0,0,3.94-1.86l2.33,2.15a7.13,7.13,0,0,1-2.78,2.08,9.68,9.68,0,0,1-8-.32Z" transform="translate(-701.81 -806.64)"/><path id="Path_11" data-name="Path 11" d="M812.83,825.29a7.85,7.85,0,0,1-3.07-2.9,8.33,8.33,0,0,1,0-8.31,7.85,7.85,0,0,1,3.07-2.9,9.66,9.66,0,0,1,8.79,0A8,8,0,0,1,824.91,822a7.91,7.91,0,0,1-3.29,3.29,9.66,9.66,0,0,1-8.79,0Zm6.91-2.68a4.56,4.56,0,0,0,1.76-1.78,5.62,5.62,0,0,0,0-5.2,4.63,4.63,0,0,0-1.76-1.78,5.26,5.26,0,0,0-5,0,4.6,4.6,0,0,0-1.75,1.78,5.56,5.56,0,0,0,0,5.2,4.47,4.47,0,0,0,1.75,1.78,5.21,5.21,0,0,0,5,0Z" transform="translate(-701.81 -806.64)"/><path id="Path_12" data-name="Path 12" d="M831.74,825.29a7.85,7.85,0,0,1-3.07-2.9,8.33,8.33,0,0,1,0-8.31,7.85,7.85,0,0,1,3.07-2.9,9.66,9.66,0,0,1,8.79,0A8,8,0,0,1,843.82,822a7.91,7.91,0,0,1-3.29,3.29,9.66,9.66,0,0,1-8.79,0Zm6.91-2.68a4.56,4.56,0,0,0,1.76-1.78,5.62,5.62,0,0,0,0-5.2,4.63,4.63,0,0,0-1.76-1.78,5.26,5.26,0,0,0-5,0,4.6,4.6,0,0,0-1.75,1.78,5.56,5.56,0,0,0,0,5.2,4.47,4.47,0,0,0,1.75,1.78A5.26,5.26,0,0,0,838.65,822.61Z" transform="translate(-701.81 -806.64)"/><path id="Path_13" data-name="Path 13" d="M857.86,811.09a5.35,5.35,0,0,1,2.37,2,5.92,5.92,0,0,1,0,6,5.32,5.32,0,0,1-2.37,2,8.8,8.8,0,0,1-3.62.68h-3.16v4.32h-3.63V810.39h6.79A8.63,8.63,0,0,1,857.86,811.09Zm-1.33,7a2.83,2.83,0,0,0,0-4,3.86,3.86,0,0,0-2.49-.7h-3v5.44h3a3.75,3.75,0,0,0,2.49-.7Z" transform="translate(-701.81 -806.64)"/></svg>